<svg xmlns="http://www.w3.org/2000/svg" xmlns:xlink="http://www.w3.org/1999/xlink" version="1.1" x="0px" y="0px" viewBox="0 0 100 125" enable-background="new 0 0 100 100" xml:space="preserve"><g><path d="M69.593,94.478c-0.141,0-0.223-0.005-0.223-0.005l-22.948,0.002c-0.59-0.014-3.387-0.182-4.017-2.189   c-0.141-0.447-0.235-1.204-0.403-2.613c-0.165-1.38-0.41-3.426-0.69-4.317c-1.471-1.798-15.573-15.194-18.258-17.701   c-0.959-0.895-12.226-3.485-12.946-6.394c-0.337-1.358-0.129-2.739,0.82-3.812c4.781-5.408,17.447-2.741,25.188,1.075   c0.356-0.143,1.107-0.54,1.911-1.018c-1.591-5.098-8.233-26.419-10.998-35.866c-0.679-2.319-1.071-6.536,3.012-7.661   c3.954-1.089,5.579,1.708,6.764,3.921l10.101,22.281c0.53-10.025,1.531-28.351,1.872-30.293c0.492-2.814,2.15-4.242,4.93-4.242   c1.666,0,4.503,0.694,4.78,5.339l1.862,27.693c2.8-9.418,7.077-23.857,7.336-24.607c1.209-3.509,3.365-4.783,6.164-4.14   c1.332,0.307,4.319,1.545,3.281,6.4c0,0-3.128,15.858-5.069,25.707c2.497-4.361,5.475-9.607,7.411-13.171   c1.756-3.231,4.756-5.784,7.614-4.519c3.072,1.36,3.017,5.091,1.693,7.984c-4.338,9.485-9.11,20.979-10.42,25.098   c-1.32,4.153-3.563,23.471-4.681,34.23C73.501,93.398,71.935,94.478,69.593,94.478z M70.704,91.274   c0.349-3.345,3.096-29.397,4.798-34.753c1.341-4.213,6.172-15.862,10.551-25.437c0.148-0.325,1.675-3.07-0.006-3.975   c-1.422-0.766-2.585,0.702-3.937,3.19c-3.88,7.139-11.896,20.961-11.977,21.1c-0.368,0.634-1.146,0.906-1.826,0.651   c-0.687-0.258-1.085-0.975-0.943-1.694l6.834-34.651c0.492-2.301-0.202-2.661-1.021-2.849c-1.248-0.29-2.075,0.393-2.626,2.108   c-0.282,0.881-6.468,21.682-9.7,32.561c-0.207,0.697-0.892,1.148-1.604,1.063c-0.722-0.08-1.282-0.666-1.331-1.39l-2.422-36.022   c-0.15-2.529-1.135-2.529-1.786-2.529c-1.415,0-1.748,0.461-1.975,1.759c-0.313,1.782-1.458,22.558-2.152,36.088   c-0.035,0.691-0.539,1.269-1.22,1.397c-0.673,0.133-1.359-0.224-1.645-0.855l-12.555-27.72c-1.285-2.398-1.619-3.399-3.499-2.785   c-1.496,0.489-1.187,2.787-0.754,4.267C33.037,31.489,41.155,57.46,41.237,57.72c0.2,0.642-0.05,1.338-0.613,1.705   c-2.191,1.427-3.76,2.151-4.66,2.151l0,0c-0.313,0-0.606-0.063-0.862-0.203c-7.018-3.83-21.768-6.58-22.082-0.832   c-0.063,1.151,10.533,3.477,12.081,4.922C25.286,65.635,43.515,82.7,44.064,84.14c0.402,1.053,0.644,2.888,0.917,5.178   c0.083,0.691,0.183,1.525,0.254,1.914L70.704,91.274z"/></g><text x="0" y="115" fill="#000000" font-size="5px" font-weight="bold" font-family="'Helvetica Neue', Helvetica, Arial-Unicode, Arial, Sans-serif">Created by H Alberto Gongora</text><text x="0" y="120" fill="#000000" font-size="5px" font-weight="bold" font-family="'Helvetica Neue', Helvetica, Arial-Unicode, Arial, Sans-serif">from the Noun Project</text></svg>