<svg xmlns="http://www.w3.org/2000/svg" version="1.1" viewBox="-5.0 -10.0 110.0 135.0">
 <path d="m93.758 47.219-4.4375-11.512c-1.293-3.3906-4.4883-5.707-8.0742-5.9688 0-0.019531 0.003906-0.035156 0.003906-0.050781v-18.75c0-2.4922-0.96875-4.8477-2.7461-6.6406-1.7812-1.7617-4.1367-2.7344-6.6289-2.7344-2.9492 0-5.5781 1.3711-7.2969 3.5039-0.4375-0.84766-1.0039-1.6328-1.6953-2.3359-1.7812-1.7617-4.1367-2.7344-6.6289-2.7344-4.9375 0-8.9883 3.8398-9.3398 8.6875-1.6641-1.5078-3.8672-2.4375-6.2852-2.4375-5.168 0-9.375 4.207-9.375 9.375v3.9688c-1.6602-1.4922-3.8477-2.4062-6.25-2.4062-5.168 0-9.375 4.207-9.375 9.375v18.75c0 1.9102 0.57812 3.6875 1.5625 5.1719v10.984c0 1.9648 0.54297 3.9141 1.5664 5.6328l6.6836 11.152c0.73438 1.2344 1.125 2.625 1.125 4.0273v16.156c0 0.86328 0.69922 1.5625 1.5625 1.5625 0.86328 0 1.5625-0.69922 1.5625-1.5625v-16.156c0-1.9648-0.54297-3.9141-1.5664-5.6328l-6.6836-11.152c-0.73438-1.2344-1.125-2.625-1.125-4.0273v-8.0508c1.3789 0.80078 2.9805 1.2695 4.6875 1.2695 5.168 0 9.375-4.207 9.375-9.375v-3.9688c1.6602 1.4922 3.8477 2.4062 6.25 2.4062 4.9297 0 8.9727-3.8281 9.3398-8.6641 0.03125 0.027344 0.066406 0.054688 0.097656 0.082031-0.03125 0.25391-0.058594 0.51172-0.058594 0.76953 0 4.5898 1.7891 8.9023 5.0352 12.152 2.5586 2.5586 5.7812 4.2109 9.2773 4.7969-4.0625 1.957-7.5312 4.8477-10.188 8.3594l-0.17187-0.21484c-4.0195-5.0273-10.016-7.9062-16.453-7.9062-0.86328 0-1.5625 0.69922-1.5625 1.5625 0 0.86328 0.69922 1.5625 1.5625 1.5625 5.4805 0 10.59 2.4531 14.012 6.7344l0.39453 0.49219c0.13281 0.16406 0.30078 0.27734 0.47656 0.375-2.5078 4.2227-3.9414 9.1172-3.9414 14.273 0 0.86328 0.69922 1.5625 1.5625 1.5625s1.5625-0.69922 1.5625-1.5625c0-11.246 7.5938-21.133 18.465-24.039l3.8125-1.0156c0.75781-0.20312 1.25-0.93359 1.1445-1.7109-0.10156-0.77734-0.76562-1.3594-1.5469-1.3594h-6.25c-3.7539 0-7.2852-1.4648-9.9414-4.1211s-4.1211-6.1875-4.1211-9.9414c0-1.6836 1.332-3.125 3.125-3.125h24.328c2.5664 0 4.9062 1.6094 5.8242 4.0156l4.4375 11.512c0.72266 1.8945 0.48438 4.0312-0.64062 5.7188l-11.367 17.082c-1.4844 2.1914-2.2695 4.7695-2.2695 7.4531v19.844c0 0.86328 0.69922 1.5625 1.5625 1.5625s1.5625-0.69922 1.5625-1.5625v-19.844c0-2.0586 0.59766-4.0273 1.7383-5.7109l11.371-17.094c1.6836-2.5234 2.043-5.7266 0.95703-8.5703zm-21.883-42.531c1.6641 0 3.2383 0.64844 4.4219 1.8164 1.1797 1.1914 1.8281 2.7656 1.8281 4.4336v18.75h-12.5v-18.75c0-3.4453 2.8047-6.25 6.25-6.25zm-40.625 40.625c0 3.4453-2.8047 6.25-6.25 6.25s-6.25-2.8047-6.25-6.25v-18.75c0-3.4453 2.8047-6.25 6.25-6.25s6.25 2.8047 6.25 6.25zm15.625-10.938c0 3.4453-2.8047 6.25-6.25 6.25s-6.25-2.8047-6.25-6.25v-18.75c0-3.4453 2.8047-6.25 6.25-6.25s6.25 2.8047 6.25 6.25zm9.375-4.6875c-1.9688 0-3.8008 0.96875-4.8867 2.3359-0.87109-1.1016-1.3633-2.4727-1.3633-3.8984v-18.75c0-3.4453 2.8047-6.25 6.25-6.25 1.6641 0 3.2383 0.64844 4.4219 1.8164 1.1797 1.1914 1.8281 2.7656 1.8281 4.4336v18.75c0 0.53125-0.066406 1.0508-0.19531 1.5625z"/>
<text x="0.0" y="117.5" font-size="5.0" font-weight="bold" font-family="Arbeit Regular, Helvetica, Arial-Unicode, Arial, Sans-serif" fill="#000000">Created by Kmg Design</text><text x="0.0" y="122.5" font-size="5.0" font-weight="bold" font-family="Arbeit Regular, Helvetica, Arial-Unicode, Arial, Sans-serif" fill="#000000">from Noun Project</text></svg>