<svg xmlns="http://www.w3.org/2000/svg" version="1.1" viewBox="-5.0 -10.0 110.0 135.0">
 <path d="m70.312 46.875h-0.69922l11.078-32.078c0.28516-0.82031 0.42969-1.6758 0.42969-2.5469 0-3.3242-2.1172-6.2969-5.2734-7.3984-4.0781-1.4023-8.5352 0.76953-9.9414 4.8438l-7.7266 22.406-1.957-24.891c-0.30859-4.043-3.7305-7.2109-7.793-7.2109-0.20703 0-0.42969 0.0039062-0.60547 0.019531-4.2969 0.33203-7.5195 4.1016-7.1875 8.3984l1.8594 23.664c-1.043-0.51562-2.1992-0.83594-3.4414-0.83594-3.8281 0-7.0039 2.7695-7.6719 6.4062-1.332-1.0586-2.9961-1.7188-4.8281-1.7188-4.3086 0-7.8125 3.5039-7.8125 7.8125v9.375c0 1.7422 0.59375 3.3398 1.5625 4.6406v11.16c0 2.1719 0.51172 4.3477 1.4844 6.2891l5.1719 10.348c0.75781 1.5117 1.1562 3.2031 1.1562 4.8906v7.9883c0 0.86328 0.69922 1.5625 1.5625 1.5625 0.86328 0 1.5625-0.69922 1.5625-1.5625v-7.9883c0-2.1719-0.51172-4.3477-1.4844-6.2891l-5.1719-10.348c-0.75781-1.5117-1.1562-3.2031-1.1562-4.8906v-8.6484c0.95703 0.42187 2.0117 0.66406 3.125 0.66406 3.8281 0 7.0039-2.7695 7.6719-6.4062 1.332 1.0586 2.9961 1.7188 4.8281 1.7188 4.3086 0 7.8125-3.5039 7.8125-7.8125v-9.375c0-1.3477-0.375-2.5977-0.98047-3.707l-2.1367-27.18c-0.19922-2.5781 1.7344-4.8398 4.3438-5.043 0.10547-0.011718 0.22656-0.007812 0.33203-0.007812 2.4375 0 4.4922 1.8984 4.6758 4.3242l2.5469 32.375c0.058593 0.73828 0.625 1.332 1.3594 1.4258 0.73438 0.089844 1.4336-0.33984 1.6758-1.0391l10.172-29.5c0.84375-2.4453 3.5195-3.7461 5.9609-2.9102 1.8984 0.66406 3.1719 2.4492 3.1719 4.4453 0 0.51953-0.085937 1.0273-0.25781 1.5195l-11.434 33.105h-11.621c-2.5859 0-4.6875 2.1016-4.6875 4.6875 0 7.7539 6.3086 14.062 14.062 14.062h1.5625v1.9297l-0.96094 0.26172c-9.5547 2.6055-16.227 11.344-16.227 21.242 0 0.86328 0.69922 1.5625 1.5625 1.5625s1.5625-0.69922 1.5625-1.5625c0-8.4961 5.7266-15.992 13.922-18.23l2.1133-0.57422c0.67969-0.18359 1.1523-0.80078 1.1523-1.5078v-4.6875c0-0.86328-0.69922-1.5625-1.5625-1.5625h-3.125c-6.0312 0-10.938-4.9062-10.938-10.938 0-0.86328 0.69922-1.5625 1.5625-1.5625h15.625c4.3086 0 7.8125 3.5039 7.8125 7.8125v14.875c0 1.1172-0.40234 2.1992-1.1289 3.0508l-5.2383 6.1094c-1.9414 2.2656-3.0078 5.1523-3.0078 8.1367v8.4531c0 0.86328 0.69922 1.5625 1.5625 1.5625s1.5625-0.69922 1.5625-1.5625v-8.4531c0-2.2344 0.80078-4.4023 2.2578-6.1016l5.2383-6.1094c1.2148-1.4141 1.8789-3.2227 1.8789-5.082v-14.875c0-6.0312-4.9062-10.938-10.938-10.938zm-39.062 6.25c0 2.5859-2.1016 4.6875-4.6875 4.6875s-4.6875-2.1016-4.6875-4.6875v-9.375c0-2.5859 2.1016-4.6875 4.6875-4.6875s4.6875 2.1016 4.6875 4.6875zm12.5-4.6875c0 2.5859-2.1016 4.6875-4.6875 4.6875s-4.6875-2.1016-4.6875-4.6875v-9.375c0-2.5859 2.1016-4.6875 4.6875-4.6875s4.6875 2.1016 4.6875 4.6875z"/>
<text x="0.0" y="117.5" font-size="5.0" font-weight="bold" font-family="Arbeit Regular, Helvetica, Arial-Unicode, Arial, Sans-serif" fill="#000000">Created by Kmg Design</text><text x="0.0" y="122.5" font-size="5.0" font-weight="bold" font-family="Arbeit Regular, Helvetica, Arial-Unicode, Arial, Sans-serif" fill="#000000">from Noun Project</text></svg>